<?xml version="1.0" encoding="UTF-8"?>
<svg version="1.1" xmlns="http://www.w3.org/2000/svg" width="450" height="450">
<path d="M0 0 C1.25311981 -0.00902847 2.50623962 -0.01805695 3.79733276 -0.02735901 C6.44119917 -0.04179062 9.08510072 -0.05073047 11.72900391 -0.05444336 C15.68309449 -0.06080582 19.63607334 -0.11540223 23.58984375 -0.16601562 C74.78800098 -0.49223078 124.91804123 18.88028328 163.6171875 52.37109375 C164.80634766 53.39396484 164.80634766 53.39396484 166.01953125 54.4375 C178.10703324 65.07528538 189.10446621 76.37187745 198.6171875 89.37109375 C199.38546875 90.4178125 200.15375 91.46453125 200.9453125 92.54296875 C217.33170495 115.5755903 229.43353128 141.13901152 236.4296875 168.55859375 C236.61233154 169.26798096 236.79497559 169.97736816 236.9831543 170.70825195 C237.59281272 173.25248469 238.11260125 175.80378246 238.6171875 178.37109375 C238.87685303 179.64710449 239.13651855 180.92311523 239.40405273 182.23779297 C241.86707043 195.28843298 242.1103101 208.21398595 242.06323242 221.46679688 C242.05473182 225.10214139 242.08358349 228.73590345 242.11523438 232.37109375 C242.24435333 275.3950617 228.91457229 319.31330066 203.6171875 354.37109375 C202.92109375 355.34046875 202.225 356.30984375 201.5078125 357.30859375 C187.62062863 376.21880157 171.67106303 393.57815142 152.6171875 407.37109375 C151.57433594 408.13550781 150.53148437 408.89992188 149.45703125 409.6875 C126.43588703 426.09042184 100.84689748 438.18804281 73.4296875 445.18359375 C72.72030029 445.36623779 72.01091309 445.54888184 71.2800293 445.73706055 C68.73579656 446.34671897 66.18449879 446.8665075 63.6171875 447.37109375 C62.34117676 447.63075928 61.06516602 447.8904248 59.75048828 448.15795898 C46.69984827 450.62097668 33.7742953 450.86421635 20.52148438 450.81713867 C16.88613986 450.80863807 13.2523778 450.83748974 9.6171875 450.86914062 C-33.40678045 450.99825958 -77.32501941 437.66847854 -112.3828125 412.37109375 C-113.3521875 411.675 -114.3215625 410.97890625 -115.3203125 410.26171875 C-134.23052032 396.37453488 -151.58987017 380.42496928 -165.3828125 361.37109375 C-166.52943359 359.80681641 -166.52943359 359.80681641 -167.69921875 358.2109375 C-184.10214059 335.18979328 -196.19976156 309.60080373 -203.1953125 282.18359375 C-203.37795654 281.47420654 -203.56060059 280.76481934 -203.7487793 280.03393555 C-204.35843772 277.48970281 -204.87822625 274.93840504 -205.3828125 272.37109375 C-205.77231079 270.45707764 -205.77231079 270.45707764 -206.16967773 268.50439453 C-208.63269543 255.45375452 -208.8759351 242.52820155 -208.82885742 229.27539062 C-208.82035682 225.64004611 -208.84920849 222.00628405 -208.88085938 218.37109375 C-209.00997833 175.3471258 -195.68019729 131.42888684 -170.3828125 96.37109375 C-169.68671875 95.40171875 -168.990625 94.43234375 -168.2734375 93.43359375 C-154.38625363 74.52338593 -138.43668803 57.16403608 -119.3828125 43.37109375 C-118.33996094 42.60667969 -117.29710938 41.84226563 -116.22265625 41.0546875 C-82.84130085 17.26995472 -41.38206397 0.18984888 0 0 Z " fill="#FEFEFE" transform="translate(208.3828125,-0.37109375)"/>
<path d="M0 0 C10.725 -0.04125 21.45 -0.0825 32.5 -0.125 C37.55924805 -0.15231201 37.55924805 -0.15231201 42.72070312 -0.18017578 C45.40755047 -0.1860195 48.09439958 -0.19111535 50.78125 -0.1953125 C51.81469543 -0.20315262 51.81469543 -0.20315262 52.86901855 -0.21115112 C60.17411393 -0.26374764 66.98810034 -0.2702462 74 2 C74.886875 2.28359375 75.77375 2.5671875 76.6875 2.859375 C88.87341644 7.55259958 98.56867053 16.30174453 103.96875 28.32421875 C110.63393688 45.61835896 110.63562828 67.65780585 104 85 C102.26969372 88.57164826 100.32110002 91.78616921 98 95 C97.4225 95.886875 96.845 96.77375 96.25 97.6875 C84.93123199 109.32067824 68.80170751 113.98434457 52.90283203 114.34057617 C50.43777455 114.3398415 47.97267629 114.32387893 45.5078125 114.29296875 C44.34241943 114.28994751 43.17702637 114.28692627 41.97631836 114.28381348 C37.69245331 114.2683155 33.40871615 114.22643452 29.125 114.1875 C19.51375 114.125625 9.9025 114.06375 0 114 C0 76.38 0 38.76 0 0 Z " fill="#EE3425" transform="translate(236,167)"/>
<path d="M0 0 C1.25311981 -0.00902847 2.50623962 -0.01805695 3.79733276 -0.02735901 C6.44119917 -0.04179062 9.08510072 -0.05073047 11.72900391 -0.05444336 C15.68309449 -0.06080582 19.63607334 -0.11540223 23.58984375 -0.16601562 C74.78800098 -0.49223078 124.91804123 18.88028328 163.6171875 52.37109375 C164.80634766 53.39396484 164.80634766 53.39396484 166.01953125 54.4375 C178.10703324 65.07528538 189.10446621 76.37187745 198.6171875 89.37109375 C199.38546875 90.4178125 200.15375 91.46453125 200.9453125 92.54296875 C217.33170495 115.5755903 229.43353128 141.13901152 236.4296875 168.55859375 C236.61233154 169.26798096 236.79497559 169.97736816 236.9831543 170.70825195 C237.59281272 173.25248469 238.11260125 175.80378246 238.6171875 178.37109375 C238.87685303 179.64710449 239.13651855 180.92311523 239.40405273 182.23779297 C241.86707043 195.28843298 242.1103101 208.21398595 242.06323242 221.46679688 C242.05473182 225.10214139 242.08358349 228.73590345 242.11523438 232.37109375 C242.24435333 275.3950617 228.91457229 319.31330066 203.6171875 354.37109375 C202.92109375 355.34046875 202.225 356.30984375 201.5078125 357.30859375 C187.62062863 376.21880157 171.67106303 393.57815142 152.6171875 407.37109375 C151.57433594 408.13550781 150.53148437 408.89992188 149.45703125 409.6875 C126.43588703 426.09042184 100.84689748 438.18804281 73.4296875 445.18359375 C72.72030029 445.36623779 72.01091309 445.54888184 71.2800293 445.73706055 C68.73579656 446.34671897 66.18449879 446.8665075 63.6171875 447.37109375 C62.34117676 447.63075928 61.06516602 447.8904248 59.75048828 448.15795898 C46.69984827 450.62097668 33.7742953 450.86421635 20.52148438 450.81713867 C16.88613986 450.80863807 13.2523778 450.83748974 9.6171875 450.86914062 C-33.40678045 450.99825958 -77.32501941 437.66847854 -112.3828125 412.37109375 C-113.3521875 411.675 -114.3215625 410.97890625 -115.3203125 410.26171875 C-134.23052032 396.37453488 -151.58987017 380.42496928 -165.3828125 361.37109375 C-166.52943359 359.80681641 -166.52943359 359.80681641 -167.69921875 358.2109375 C-184.10214059 335.18979328 -196.19976156 309.60080373 -203.1953125 282.18359375 C-203.37795654 281.47420654 -203.56060059 280.76481934 -203.7487793 280.03393555 C-204.35843772 277.48970281 -204.87822625 274.93840504 -205.3828125 272.37109375 C-205.77231079 270.45707764 -205.77231079 270.45707764 -206.16967773 268.50439453 C-208.63269543 255.45375452 -208.8759351 242.52820155 -208.82885742 229.27539062 C-208.82035682 225.64004611 -208.84920849 222.00628405 -208.88085938 218.37109375 C-209.00997833 175.3471258 -195.68019729 131.42888684 -170.3828125 96.37109375 C-169.68671875 95.40171875 -168.990625 94.43234375 -168.2734375 93.43359375 C-154.38625363 74.52338593 -138.43668803 57.16403608 -119.3828125 43.37109375 C-118.33996094 42.60667969 -117.29710938 41.84226563 -116.22265625 41.0546875 C-82.84130085 17.26995472 -41.38206397 0.18984888 0 0 Z M-53.43676758 16.70117188 C-55.0673781 17.26250612 -56.71204777 17.78277292 -58.359375 18.29296875 C-66.73397638 20.91157567 -74.54458648 24.47790871 -82.3828125 28.37109375 C-83.0005957 28.6753125 -83.61837891 28.97953125 -84.25488281 29.29296875 C-94.59227883 34.43172696 -104.10130533 40.51530563 -113.3828125 47.37109375 C-114.32713135 48.0676709 -114.32713135 48.0676709 -115.29052734 48.77832031 C-133.95970801 62.771744 -151.26056833 80.0544434 -164.3828125 99.37109375 C-164.89489258 100.12455078 -165.40697266 100.87800781 -165.93457031 101.65429688 C-176.42187297 117.29132505 -184.92451421 133.43998139 -190.72949219 151.36987305 C-191.17595827 152.73746738 -191.63557712 154.10081942 -192.10644531 155.46020508 C-211.38325629 211.38420892 -205.63398058 271.56456702 -180.00415039 324.34643555 C-173.40139839 337.60441583 -165.63595154 349.79407724 -156.3828125 361.37109375 C-155.74617676 362.17546875 -155.10954102 362.97984375 -154.45361328 363.80859375 C-129.2442143 395.2137576 -95.87912818 420.25460953 -57.3840332 432.71777344 C-56.01643887 433.16423952 -54.65308683 433.62385837 -53.29370117 434.09472656 C2.63030267 453.37153754 62.81066077 447.62226183 115.5925293 421.99243164 C128.89124488 415.36939261 140.93867525 407.55532687 152.6171875 398.37109375 C153.84501953 397.45070313 153.84501953 397.45070313 155.09765625 396.51171875 C171.04532988 384.14918105 185.19791297 368.97439254 196.6171875 352.37109375 C197.11621582 351.65195801 197.61524414 350.93282227 198.12939453 350.19189453 C230.31499784 303.20854991 244.03396561 243.53893705 233.6171875 187.37109375 C231.3933344 176.54770571 228.88849354 165.77167626 225.28710938 155.31713867 C224.72577513 153.68652815 224.20550833 152.04185848 223.6953125 150.39453125 C221.07670558 142.01992987 217.51037254 134.20931977 213.6171875 126.37109375 C213.31296875 125.75331055 213.00875 125.13552734 212.6953125 124.49902344 C197.15355888 93.23441525 172.35409393 65.06732441 143.6171875 45.37109375 C142.89950195 44.87351563 142.18181641 44.3759375 141.44238281 43.86328125 C84.85057025 5.09155196 11.57911455 -5.69553061 -53.43676758 16.70117188 Z " fill="#0F0F0F" transform="translate(208.3828125,-0.37109375)"/>
<path d="M0 0 C32.01 0 64.02 0 97 0 C97 9.9 97 19.8 97 30 C76.54 30 56.08 30 35 30 C35 34.62 35 39.24 35 44 C55.13 44 75.26 44 96 44 C96 52.58 96 61.16 96 70 C76.2 70.33 56.4 70.66 36 71 C35.67 75.62 35.34 80.24 35 85 C55.13 85 75.26 85 96 85 C96 94.57 96 104.14 96 114 C64.32 114 32.64 114 0 114 C0 76.38 0 38.76 0 0 Z " fill="#EE3426" transform="translate(133,167)"/>
<path d="M0 0 C32.67 0 65.34 0 99 0 C99 9.57 99 19.14 99 29 C88.44 29 77.88 29 67 29 C67 57.05 67 85.1 67 114 C55.45 114 43.9 114 32 114 C32 86.28 32 58.56 32 30 C21.44 30 10.88 30 0 30 C0 20.1 0 10.2 0 0 Z " fill="#EE3425" transform="translate(29,167)"/>
<path d="M0 0 C8.58 0 17.16 0 26 0 C27.299375 2.26875 28.59875 4.5375 29.9375 6.875 C30.34605225 7.58769043 30.75460449 8.30038086 31.17553711 9.03466797 C33.88888889 13.77777778 33.88888889 13.77777778 35 16 C35.95712891 14.39318359 35.95712891 14.39318359 36.93359375 12.75390625 C37.76815188 11.35672466 38.60279151 9.95959176 39.4375 8.5625 C39.85837891 7.85544922 40.27925781 7.14839844 40.71289062 6.41992188 C43.88671875 1.11328125 43.88671875 1.11328125 45 0 C46.85369611 -0.08737645 48.71067541 -0.10698153 50.56640625 -0.09765625 C51.69111328 -0.09443359 52.81582031 -0.09121094 53.97460938 -0.08789062 C55.15861328 -0.07951172 56.34261719 -0.07113281 57.5625 -0.0625 C58.75037109 -0.05798828 59.93824219 -0.05347656 61.16210938 -0.04882812 C64.10812226 -0.03699675 67.05403681 -0.02051287 70 0 C68.44117051 4.08677711 66.54489918 7.30305223 64 10.875 C63.19986234 12.01776839 62.40041176 13.16101809 61.6015625 14.3046875 C60.26850099 16.2024842 58.93103713 18.09675743 57.58496094 19.98535156 C56.16762776 21.9807948 54.77026658 23.98908694 53.375 26 C52.92511719 26.62245605 52.47523438 27.24491211 52.01171875 27.88623047 C50.19815815 30.52433183 49 32.36194634 49 35.61328125 C50.20760917 38.49550469 51.72490545 40.70417179 53.625 43.1875 C54.346875 44.14785156 55.06875 45.10820312 55.8125 46.09765625 C56.534375 47.05542969 57.25625 48.01320312 58 49 C60.36767756 52.30981592 62.68951598 55.65006746 65 59 C65.58394531 59.84304687 66.16789062 60.68609375 66.76953125 61.5546875 C67.59517578 62.76511719 67.59517578 62.76511719 68.4375 64 C69.17806641 65.0828125 69.17806641 65.0828125 69.93359375 66.1875 C71 68 71 68 71 70 C66.95957327 70.26233625 62.92133519 70.42150491 58.875 70.5625 C57.73289062 70.63791016 56.59078125 70.71332031 55.4140625 70.79101562 C47.09331929 71.00870949 47.09331929 71.00870949 43.93994141 68.09936523 C42.39184881 65.79048623 41.17180787 63.5176051 40 61 C39.21788901 59.64029199 38.42719264 58.28545788 37.625 56.9375 C37.08875 55.968125 36.5525 54.99875 36 54 C33.64338342 55.90872161 32.9133589 57.23346579 31.8359375 60.13671875 C28.76867101 67.59165253 28.76867101 67.59165253 25 70 C16.86086575 71.73946859 8.22190793 70.7823775 0 70 C1.43866382 65.96611757 3.3902978 62.71100077 5.80859375 59.18359375 C6.35967552 58.37608421 6.35967552 58.37608421 6.92189026 57.55226135 C8.08929128 55.84423029 9.26337326 54.14091255 10.4375 52.4375 C11.22242605 51.2900013 12.0069353 50.14221737 12.79101562 48.99414062 C18.62205955 40.4752696 18.62205955 40.4752696 20.75195312 37.796875 C22.24498901 36.03102685 22.24498901 36.03102685 21.91015625 33.56640625 C20.83737177 30.54143027 19.39692582 28.47976873 17.4375 25.9375 C13.70952596 20.98691082 10.24257654 15.91909045 6.83203125 10.74609375 C5.26541322 8.39783688 3.65809839 6.09647215 2 3.8125 C0 1 0 1 0 0 Z " fill="#EE3526" transform="translate(349,167)"/>
<path d="M0 0 C24.57674419 0 24.57674419 0 30.25 5.125 C30.87390625 5.66382813 31.4978125 6.20265625 32.140625 6.7578125 C37.25849726 12.92936435 38.63414902 18.59597821 38.4375 26.5 C38.44458984 27.30308594 38.45167969 28.10617188 38.45898438 28.93359375 C38.37049529 37.33325023 36.06936222 43.93063778 30 50 C23 54 23 54 0 54 C0 36.18 0 18.36 0 0 Z " fill="#FEFDFD" transform="translate(271,197)"/>
<path d="M0 0 C0.66 0.66 1.32 1.32 2 2 C1.01 2 0.02 2 -1 2 C-0.67 1.34 -0.34 0.68 0 0 Z " fill="#000000" transform="translate(75,54)"/>
</svg>
